<svg width="192" height="30" viewBox="0 0 192 30" fill="none" xmlns="http://www.w3.org/2000/svg">
<path d="M168.056 11.3544C167.159 11.3544 166.575 11.9593 166.304 13.1692C166.054 14.3582 165.928 15.7871 165.928 17.4559V25.5287H162.487V9.57086L165.365 9.19539L165.522 12.0115C165.814 11.0728 166.325 10.3323 167.055 9.78989C167.785 9.22668 168.63 8.94507 169.589 8.94507C170.632 8.94507 171.456 9.24754 172.061 9.85247C172.687 10.4574 173 11.2814 173 12.3244C173 14.014 172.186 14.8589 170.559 14.8589C170.017 14.8589 169.6 14.7441 169.308 14.5147C169.454 13.9723 169.527 13.503 169.527 13.1066C169.527 11.9385 169.037 11.3544 168.056 11.3544Z" fill="black"/>
<path d="M158.231 21.1168C158.711 21.3463 158.951 21.7948 158.951 22.4623C158.951 23.2132 158.7 23.8808 158.2 24.4648C157.699 25.0281 157.052 25.4557 156.26 25.7477C155.467 26.0606 154.664 26.2171 153.85 26.2171C151.556 26.2171 149.856 25.4765 148.75 23.9955C147.645 22.4936 147.092 20.4806 147.092 17.9565C147.092 15.2656 147.686 13.0962 148.875 11.4483C150.085 9.77946 151.91 8.94507 154.351 8.94507C155.895 8.94507 157.136 9.35184 158.075 10.1654C159.013 10.958 159.483 12.0845 159.483 13.5447C159.483 15.3595 158.846 16.6319 157.574 17.362C156.322 18.0921 154.612 18.4572 152.442 18.4572C151.837 18.4572 151.264 18.4363 150.721 18.3946C150.784 20.0425 151.055 21.3567 151.535 22.3371C152.036 23.3175 152.912 23.8077 154.163 23.8077C155.081 23.8077 155.884 23.5783 156.573 23.1194C157.282 22.6396 157.835 21.9721 158.231 21.1168ZM153.85 10.7286C152.724 10.7286 151.931 11.3231 151.472 12.5121C151.013 13.6803 150.763 15.1196 150.721 16.8301C151.347 16.8718 151.806 16.8927 152.098 16.8927C154.727 16.8927 156.041 15.8393 156.041 13.7324C156.041 12.8772 155.853 12.1679 155.477 11.6047C155.123 11.0206 154.581 10.7286 153.85 10.7286Z" fill="black"/>
<path d="M146.109 9.5708L141.791 25.5286H137.536L135.064 14.2956L132.686 25.5286H128.43L124.457 9.5708H128.024L130.871 23.4322L133.718 9.5708H137.129L139.976 23.4322L142.824 9.5708H146.109Z" fill="black"/>
<path d="M117.687 10.6034C117.061 10.6034 116.561 10.7703 116.185 11.1041C115.81 11.417 115.622 11.8759 115.622 12.4808C115.622 13.2944 115.893 13.9619 116.436 14.4834C116.999 14.984 117.854 15.5472 119.001 16.173C119.919 16.6737 120.649 17.1222 121.192 17.5185C121.755 17.9148 122.235 18.4259 122.631 19.0517C123.027 19.6566 123.225 20.3972 123.225 21.2733C123.225 22.8586 122.652 24.0789 121.505 24.9342C120.378 25.7894 118.939 26.2171 117.187 26.2171C115.664 26.2171 114.381 25.9563 113.338 25.4348C112.316 24.9133 111.805 24.0476 111.805 22.8378C111.805 22.1285 112.024 21.5862 112.462 21.2107C112.9 20.8352 113.494 20.6475 114.245 20.6475C114.788 20.6475 115.205 20.7622 115.497 20.9917C115.33 21.4923 115.247 21.9616 115.247 22.3997C115.247 23.0672 115.455 23.5991 115.872 23.9955C116.29 24.371 116.853 24.5587 117.562 24.5587C118.334 24.5587 118.918 24.3605 119.314 23.9642C119.731 23.547 119.94 22.9421 119.94 22.1494C119.94 21.3359 119.658 20.6788 119.095 20.1781C118.553 19.6566 117.708 19.083 116.561 18.4572C115.643 17.9357 114.902 17.4768 114.339 17.0804C113.797 16.6841 113.327 16.1835 112.931 15.5785C112.535 14.9527 112.337 14.2018 112.337 13.3256C112.337 11.928 112.9 10.8537 114.026 10.1028C115.153 9.33098 116.519 8.94507 118.125 8.94507C119.606 8.94507 120.816 9.21625 121.755 9.75861C122.714 10.2801 123.194 11.1458 123.194 12.3557C123.194 13.0649 122.965 13.6073 122.506 13.9827C122.068 14.3582 121.473 14.546 120.722 14.546C120.18 14.546 119.763 14.4312 119.471 14.2018C119.638 13.7011 119.721 13.2318 119.721 12.7937C119.721 12.1053 119.544 11.5734 119.189 11.1979C118.855 10.8016 118.355 10.6034 117.687 10.6034Z" fill="black"/>
<path d="M96.0874 9.57086L98.9661 9.19539L99.1225 12.0115C99.5189 11.0102 100.124 10.2488 100.937 9.72732C101.772 9.20582 102.742 8.94507 103.847 8.94507C105.6 8.94507 106.82 9.43528 107.508 10.4157C108.197 11.3752 108.541 12.8459 108.541 14.8276V22.9629C108.541 23.9851 108.864 24.6734 109.511 25.0281C109.344 25.341 109.073 25.5808 108.697 25.7477C108.322 25.9146 107.925 25.998 107.508 25.998C106.695 25.998 106.09 25.7686 105.693 25.3097C105.297 24.8507 105.099 24.2041 105.099 23.3697V15.2656C105.099 13.9514 104.953 12.971 104.661 12.3244C104.369 11.6777 103.722 11.3544 102.721 11.3544C101.448 11.3544 100.593 11.9176 100.155 13.044C99.7379 14.1705 99.5293 15.6202 99.5293 17.3933V25.5287H96.0874V9.57086Z" fill="black"/>
<path d="M88.6739 4.87744L94.0244 25.5287H90.3322L89.0806 20.2721H82.9478L81.7275 25.5287H78.2856L84.0117 4.87744H88.6739ZM83.5111 17.9566H88.5487L86.0142 7.22418L83.5111 17.9566Z" fill="black"/>
<path d="M57.5642 25.5286V3.62572L61.0061 3.25024V25.5286H57.5642ZM66.6696 9.57079H70.2992L64.886 16.2042L70.4243 25.5286H66.4192L61.4441 16.7675L66.6696 9.57079Z" fill="black"/>
<path d="M49.1697 10.7912C47.0838 10.7912 46.0408 13.0649 46.0408 17.6124C46.0408 19.4689 46.2702 20.9708 46.7291 22.1181C47.2089 23.2445 48.1267 23.8077 49.4826 23.8077C50.4005 23.8077 51.1827 23.5679 51.8294 23.0881C52.4969 22.5874 52.9454 21.8886 53.1748 20.9917C53.5295 21.1585 53.7798 21.3567 53.9258 21.5862C54.0927 21.7948 54.1761 22.0868 54.1761 22.4623C54.1761 23.2132 53.9258 23.8808 53.4252 24.4648C52.9454 25.0281 52.3196 25.4557 51.5478 25.7477C50.776 26.0606 49.9833 26.2171 49.1697 26.2171C46.8752 26.2171 45.1751 25.4765 44.0695 23.9955C42.9639 22.4936 42.4111 20.4806 42.4111 17.9565C42.4111 15.2656 43.0056 13.0962 44.1947 11.4483C45.4045 9.77946 47.2193 8.94507 49.6391 8.94507C51.0576 8.94507 52.2257 9.23711 53.1436 9.82118C54.0614 10.4053 54.5203 11.3022 54.5203 12.5121C54.5203 13.2213 54.3013 13.7637 53.8632 14.1392C53.4252 14.5147 52.8307 14.7024 52.0797 14.7024C51.8502 14.7024 51.6104 14.6711 51.36 14.6085C51.1306 14.546 50.9428 14.4625 50.7968 14.3582C50.9637 13.8576 51.0471 13.3882 51.0471 12.9502C51.0471 11.5108 50.4213 10.7912 49.1697 10.7912Z" fill="black"/>
<path d="M37.588 3C38.2764 3 38.8292 3.16688 39.2464 3.50064C39.6844 3.8344 39.9034 4.31417 39.9034 4.93997C39.9034 5.58663 39.674 6.08727 39.2151 6.44188C38.777 6.77564 38.2034 6.94252 37.4941 6.94252C36.8057 6.94252 36.253 6.77564 35.8358 6.44188C35.4186 6.10813 35.21 5.62835 35.21 5.00255C35.21 4.35589 35.429 3.86569 35.867 3.53193C36.326 3.17731 36.8996 3 37.588 3ZM39.2151 22.9629C39.2151 23.9851 39.5384 24.6734 40.185 25.0281C40.0182 25.341 39.747 25.5808 39.3715 25.7477C38.996 25.9146 38.5893 25.998 38.1512 25.998C37.3585 25.998 36.764 25.7686 36.3677 25.3097C35.9713 24.8507 35.7732 24.2041 35.7732 23.3697V9.57087H39.2151V22.9629Z" fill="black"/>
<path d="M31.573 22.9629C31.573 23.985 31.8963 24.6734 32.543 25.028C32.3761 25.3409 32.1258 25.5808 31.792 25.7477C31.4791 25.9145 31.1141 25.998 30.6969 25.998C30.0919 25.998 29.5913 25.8311 29.195 25.4973C28.7986 25.1427 28.5587 24.6734 28.4753 24.0893C28.1415 24.7777 27.5992 25.2992 26.8482 25.6538C26.1181 26.0293 25.3254 26.217 24.4702 26.217C22.9683 26.217 21.821 25.8937 21.0283 25.247C20.2565 24.5795 19.7454 23.6825 19.4951 22.5561C19.2448 21.4088 19.1196 19.9382 19.1196 18.1442V9.5708H22.5615V17.9878C22.5615 19.2602 22.6032 20.3137 22.6867 21.148C22.791 21.9616 23.0517 22.6604 23.4689 23.2445C23.8861 23.8285 24.5223 24.1206 25.3776 24.1206C26.2954 24.1206 26.9838 23.7764 27.4427 23.088C27.9016 22.3788 28.1311 21.5027 28.1311 20.4597V9.5708H31.573V22.9629Z" fill="black"/>
<path d="M8.04149 4.25171C13.3816 4.25171 16.0517 7.80832 16.0517 14.9215C16.0517 22.452 13.3816 26.2172 8.04149 26.2172C10.1692 26.697 11.9319 26.9369 13.3295 26.9369C13.851 26.9369 14.3099 26.8847 14.7062 26.7804C15.1026 26.697 15.4676 26.5197 15.8014 26.2485C16.2812 26.916 16.521 27.5209 16.521 28.0633C16.521 28.7308 16.2916 29.221 15.8327 29.5339C15.3946 29.8468 14.8001 30.0033 14.0491 30.0033C13.3608 30.0033 12.662 29.9094 11.9527 29.7217C11.2643 29.5548 10.4612 29.3149 9.54341 29.002C8.70901 28.7308 7.99977 28.5222 7.4157 28.3762C6.85248 28.2302 6.31012 28.1572 5.78862 28.1572C5.01681 28.1572 4.44316 28.2406 4.06768 28.4075C3.92166 28.2615 3.80693 28.0842 3.72349 27.8756C3.64005 27.6878 3.59833 27.5001 3.59833 27.3123C3.59833 26.3945 4.27628 25.9356 5.63217 25.9356C3.60876 25.4349 2.159 24.2668 1.28288 22.4311C0.427628 20.5746 0 18.1966 0 15.297C0 11.9594 0.625797 9.28938 1.87739 7.28682C3.14985 5.26341 5.20455 4.25171 8.04149 4.25171ZM8.04149 6.442C6.39356 6.442 5.29842 7.27639 4.75606 8.94519C4.2137 10.5931 3.94252 12.6582 3.94252 15.1406C3.94252 17.7481 4.20327 19.8862 4.72477 21.555C5.24627 23.2029 6.35184 24.0269 8.04149 24.0269C9.71029 24.0269 10.8054 23.2029 11.3269 21.555C11.8484 19.8862 12.1092 17.7481 12.1092 15.1406C12.1092 12.6582 11.838 10.5931 11.2956 8.94519C10.7533 7.27639 9.66857 6.442 8.04149 6.442Z" fill="black"/>
<path d="M185 1.0769C181.419 1.0769 178.538 3.71537 178.538 6.99998C178.538 8.04998 178.835 9.01921 179.346 9.90767C179.4 10.0154 179.427 10.15 179.4 10.2577L178.808 12.1154C178.7 12.4654 179.023 12.7615 179.373 12.6538L181.258 12.0077C181.392 11.9538 181.527 11.9808 181.635 12.0615C182.631 12.6269 183.788 12.95 185.027 12.95C188.608 12.95 191.488 10.3115 191.488 7.0269C191.435 3.71537 188.554 1.0769 185 1.0769ZM188.096 5.68075L184.812 8.91152C184.677 9.04613 184.542 9.09998 184.354 9.09998C184.192 9.09998 184.031 9.04613 183.896 8.91152L182.308 7.34998C182.173 7.21537 182.173 7.0269 182.308 6.91921L182.765 6.48844C182.9 6.35383 183.088 6.35383 183.223 6.48844L184.354 7.61921L187.181 4.81921C187.315 4.6846 187.504 4.6846 187.638 4.81921L188.096 5.24998C188.204 5.35767 188.204 5.57306 188.096 5.68075Z" fill="black"/>
</svg>
