<svg width="19" height="18" viewBox="0 0 19 18" fill="none" xmlns="http://www.w3.org/2000/svg">
<path fill-rule="evenodd" clip-rule="evenodd" d="M9.71716 1.47635C9.36055 1.1799 8.75621 1.1843 8.41357 1.47526L7.08318 2.60413C6.88214 2.77661 6.62584 2.90737 6.38871 2.99487C6.15091 3.08262 5.87167 3.14927 5.60909 3.14927H4.15098C3.60669 3.14927 3.15643 3.59642 3.15643 4.13695V5.57662C3.15643 5.83781 3.0891 6.11301 3.00228 6.34593C2.91514 6.57972 2.78685 6.82858 2.62221 7.02478C2.62157 7.02555 2.62092 7.02631 2.62027 7.02708C2.61967 7.02779 2.61906 7.0285 2.61846 7.02921L1.48265 8.35764C1.48236 8.35798 1.48207 8.35833 1.48179 8.35867C1.19176 8.7025 1.19175 9.29742 1.48176 9.64126C1.48206 9.64161 1.48235 9.64196 1.48265 9.64231L2.61846 10.9708C2.61939 10.9719 2.62031 10.973 2.62123 10.9741L2.62221 10.9752C2.78685 11.1714 2.91514 11.4203 3.00228 11.6541C3.0891 11.887 3.15643 12.1622 3.15643 12.4234V13.8547C3.15643 14.3952 3.60669 14.8424 4.15098 14.8424H5.60909C5.87504 14.8424 6.15425 14.9086 6.39293 14.9972C6.63118 15.0856 6.88451 15.2168 7.0841 15.3883C7.08442 15.3886 7.08475 15.3888 7.08507 15.3891L8.41227 16.5236C8.76866 16.8199 9.3725 16.8157 9.71527 16.5253C9.71548 16.5251 9.71506 16.5254 9.71527 16.5253L11.0444 15.3891C11.0447 15.3888 11.0451 15.3885 11.0454 15.3882C11.2466 15.2154 11.5033 15.0844 11.7408 14.9968C11.9786 14.909 12.2578 14.8424 12.5204 14.8424H13.9532C14.4975 14.8424 14.9478 14.3952 14.9478 13.8547V12.4317C14.9478 12.1676 15.0144 11.8904 15.1036 11.6533C15.1926 11.4167 15.3248 11.1652 15.4974 10.967C15.4977 10.9667 15.498 10.9663 15.4983 10.966L16.6407 9.64794C16.9391 9.294 16.9348 8.69431 16.6424 8.35391C16.6422 8.35371 16.6425 8.35411 16.6424 8.35391L15.4983 7.03403C15.498 7.03368 15.4977 7.03332 15.4974 7.03296C15.3234 6.83318 15.1915 6.57829 15.1032 6.34248C15.0149 6.10633 14.9478 5.82902 14.9478 5.56825V4.14532C14.9478 3.60479 14.4975 3.15765 13.9532 3.15765H12.5204C12.2544 3.15765 11.9752 3.09141 11.7365 3.00285C11.4983 2.91445 11.2449 2.78321 11.0454 2.61171C11.045 2.61143 11.0447 2.61115 11.0444 2.61088L9.71716 1.47635ZM7.59212 0.52087C8.41191 -0.175104 9.71051 -0.171231 10.5341 0.518138C10.5358 0.519537 10.5374 0.520945 10.5391 0.522361L11.8708 1.6607L11.8724 1.66209C11.9255 1.70781 12.0342 1.77299 12.179 1.82674C12.3238 1.88047 12.4492 1.90212 12.5204 1.90212H13.9532C15.1957 1.90212 16.212 2.91138 16.212 4.14532V5.56825C16.212 5.63392 16.2334 5.75838 16.2883 5.90516C16.3432 6.05186 16.4091 6.16059 16.4537 6.21175L16.4551 6.21335L17.6014 7.5358L17.6027 7.53736C18.3037 8.35148 18.2998 9.64124 17.6056 10.4592C17.6046 10.4604 17.6036 10.4616 17.6026 10.4628L17.6014 10.4642L16.4551 11.7866L16.4537 11.7882C16.4077 11.841 16.342 11.9489 16.2879 12.0928C16.2338 12.2366 16.212 12.361 16.212 12.4317V13.8547C16.212 15.0886 15.1957 16.0979 13.9532 16.0979H12.5204C12.4542 16.0979 12.3289 16.1191 12.1811 16.1737C12.0334 16.2282 11.9239 16.2936 11.8724 16.3379L11.8708 16.3393L10.5391 17.4776L10.5375 17.479C9.71774 18.1751 8.41901 18.1713 7.59537 17.4819C7.59369 17.4805 7.59203 17.4791 7.59037 17.4776L6.25869 16.3393L6.25707 16.3379C6.20396 16.2922 6.0953 16.227 5.95045 16.1733C5.80563 16.1195 5.68028 16.0979 5.60909 16.0979H4.15098C2.90846 16.0979 1.89217 15.0886 1.89217 13.8547V12.4234C1.89217 12.3581 1.871 12.2357 1.81665 12.0899C1.76316 11.9464 1.69837 11.8361 1.65238 11.7807L0.516896 10.4526C0.516221 10.4518 0.515549 10.451 0.514878 10.4502C-0.171626 9.63912 -0.171626 8.36083 0.514878 7.54977C0.515551 7.54898 0.516225 7.54819 0.516902 7.54739L1.65239 6.21932C1.69838 6.16385 1.76316 6.05358 1.81665 5.91008C1.871 5.76426 1.89217 5.64187 1.89217 5.57662V4.13695C1.89217 2.90301 2.90846 1.89375 4.15098 1.89375H5.60909C5.67522 1.89375 5.80054 1.87251 5.94835 1.81797C6.09607 1.76346 6.20555 1.69807 6.25707 1.65372C6.25819 1.65276 6.25931 1.6518 6.26044 1.65084L7.59212 0.52087Z" fill="black"/>
<path d="M9.06367 6C7.13183 6 5.57764 7.41346 5.57764 9.17308C5.57764 9.73558 5.73741 10.2548 6.01339 10.7308C6.04244 10.7885 6.05697 10.8606 6.04244 10.9183L5.72289 11.9135C5.66479 12.101 5.83909 12.2596 6.02792 12.2019L7.04467 11.8558C7.1173 11.8269 7.18993 11.8413 7.24803 11.8846C7.78546 12.1875 8.41004 12.3606 9.07819 12.3606C11.01 12.3606 12.5642 10.9471 12.5642 9.1875C12.5352 7.41346 10.981 6 9.06367 6ZM10.7341 8.46635L8.96199 10.1971C8.88937 10.2692 8.81674 10.2981 8.71506 10.2981C8.62791 10.2981 8.54076 10.2692 8.46814 10.1971L7.61115 9.36058C7.53853 9.28846 7.53853 9.1875 7.61115 9.12981L7.85808 8.89904C7.93071 8.82692 8.03238 8.82692 8.10501 8.89904L8.71506 9.50481L10.2402 8.00481C10.3128 7.93269 10.4145 7.93269 10.4871 8.00481L10.7341 8.23558C10.7922 8.29327 10.7922 8.40865 10.7341 8.46635Z" fill="black"/>
</svg>
